<svg width="120" height="120" viewBox="0 0 120 120" fill="none" xmlns="http://www.w3.org/2000/svg">
  <defs>
    <linearGradient id="cg_grn" x1="0" y1="0" x2="1" y2="1">
      <stop offset="0" stop-color="#34D399"/>
      <stop offset="0.55" stop-color="#10B981"/>
      <stop offset="1" stop-color="#059669"/>
    </linearGradient>
    <linearGradient id="cg_ring" x1="0" y1="0" x2="1" y2="1">
      <stop offset="0" stop-color="#10B981"/>
      <stop offset="1" stop-color="#7C3AED"/>
    </linearGradient>
  </defs>
  <!-- soft mint badge -->
  <rect x="4" y="4" width="112" height="112" rx="28" fill="#ECFDF5" stroke="url(#cg_ring)" stroke-width="2.5"/>
  <!-- mortarboard top -->
  <path d="M60 34 L98 50 L60 66 L22 50 Z" fill="url(#cg_grn)"/>
  <!-- cap base -->
  <path d="M38 57 L38 72 C38 80 50 85 60 85 C70 85 82 80 82 72 L82 57 L60 66 Z" fill="#059669"/>
  <path d="M38 57 L60 66 L82 57 L60 66 Z" fill="#047857"/>
  <!-- tassel -->
  <path d="M98 50 L98 74" stroke="#7C3AED" stroke-width="2.6" stroke-linecap="round"/>
  <circle cx="98" cy="78" r="4.5" fill="#7C3AED"/>
  <!-- center button -->
  <circle cx="60" cy="50" r="3.2" fill="#ECFDF5"/>
</svg>
